<svg width="41" height="40" viewBox="0 0 41 40" fill="none" xmlns="http://www.w3.org/2000/svg">
<g id="drag_pan">
<mask id="mask0_574_851" style="mask-type:alpha" maskUnits="userSpaceOnUse" x="0" y="0" width="41" height="40">
<rect id="Bounding box" x="0.333496" width="40" height="40" fill="#D9D9D9"/>
</mask>
<g mask="url(#mask0_574_851)">
<path id="drag_pan_2" d="M20.3337 36.6668L13.4449 29.7781L15.4587 27.7639L18.9449 31.2502V21.3889H9.09741L12.4449 24.7222L10.417 26.7502L3.66699 20.0002L10.4307 13.2364L12.4449 15.2502L9.08366 18.6114H18.9449V8.75016L15.5974 12.0972L13.5837 10.0835L20.3337 3.3335L27.0837 10.0835L25.0699 12.0972L21.7224 8.75016V18.6114H31.5699L28.2224 15.2781L30.2503 13.2502L37.0003 20.0002L30.2503 26.7502L28.2366 24.7364L31.5837 21.3889H21.7224V31.2364L25.1949 27.7502L27.2224 29.7781L20.3337 36.6668Z" fill="#0093AD"/>
</g>
</g>
</svg>
