<svg width="41" height="40" viewBox="0 0 41 40" fill="none" xmlns="http://www.w3.org/2000/svg">
<g id="Group 35">
<g id="calendar_today">
<mask id="mask0_574_846" style="mask-type:alpha" maskUnits="userSpaceOnUse" x="0" y="0" width="41" height="40">
<rect id="Bounding box" x="0.666504" width="40" height="40" fill="#D9D9D9"/>
</mask>
<g mask="url(#mask0_574_846)">
<path id="calendar_today_2" d="M8.44442 36.6668C7.69442 36.6668 7.04387 36.3914 6.49275 35.8406C5.94192 35.2895 5.6665 34.6389 5.6665 33.8889V8.88891C5.6665 8.13891 5.94192 7.4885 6.49275 6.93766C7.04387 6.38683 7.69442 6.11141 8.44442 6.11141H10.8053V3.3335H13.7219V6.11141H27.6111V3.3335H30.5278V6.11141H32.8886C33.6386 6.11141 34.2891 6.38683 34.8403 6.93766C35.3911 7.4885 35.6665 8.13891 35.6665 8.88891V33.8889C35.6665 34.6389 35.3911 35.2895 34.8403 35.8406C34.2891 36.3914 33.6386 36.6668 32.8886 36.6668H8.44442ZM8.44442 33.8889H32.8886V16.3889H8.44442V33.8889ZM8.44442 13.6114H32.8886V8.88891H8.44442V13.6114Z" fill="#0093AD"/>
</g>
</g>
</g>
</svg>
