<?xml version="1.0" encoding="UTF-8"?>
<svg id="Layer_1" data-name="Layer 1" xmlns="http://www.w3.org/2000/svg" viewBox="0 0 500 500">
  <defs>
    <style>
      .cls-1 {
        fill: #e4002b;
      }
    </style>
  </defs>
  <path class="cls-1" d="M250,478.27c-125.87,0-228.27-102.4-228.27-228.27S124.13,21.72,250,21.72s228.27,102.41,228.27,228.28-102.4,228.27-228.27,228.27M250,10C117.66,10,10,117.66,10,250s107.66,240,240,240,240-107.67,240-240S382.34,10,250,10"/>
  <path class="cls-1" d="M272.02,237.4c24.38-9.34,41.75-32.98,41.75-60.61,0-35.78-29.11-64.89-64.89-64.89s-64.9,29.11-64.9,64.89c0,27.63,17.37,51.26,41.75,60.61-54.15,10.78-95.1,58.68-95.1,115.96v4.23h236.48v-4.23c0-57.28-40.94-105.18-95.1-115.96"/>
</svg>