<svg width="40" height="40" viewBox="0 0 40 40" fill="none" xmlns="http://www.w3.org/2000/svg">
<g id="Group 40">
<g id="Group 36">
<g id="check_circle">
<mask id="mask0_574_806" style="mask-type:alpha" maskUnits="userSpaceOnUse" x="0" y="0" width="40" height="40">
<rect id="Bounding box" width="40" height="40" fill="#D9D9D9"/>
</mask>
<g mask="url(#mask0_574_806)">
<path id="check_circle_2" d="M17.5835 27.6114L29.3614 15.8335L27.3056 13.8056L17.5835 23.5281L12.6668 18.6114L10.6389 20.6389L17.5835 27.6114ZM20.0002 36.6668C17.7132 36.6668 15.5559 36.2293 13.5281 35.3543C11.5003 34.4793 9.73169 33.2872 8.22225 31.7781C6.71308 30.2686 5.521 28.5 4.646 26.4722C3.771 24.4445 3.3335 22.2871 3.3335 20.0002C3.3335 17.6946 3.771 15.5279 4.646 13.5002C5.521 11.4724 6.71308 9.7085 8.22225 8.2085C9.73169 6.7085 11.5003 5.521 13.5281 4.646C15.5559 3.771 17.7132 3.3335 20.0002 3.3335C22.3057 3.3335 24.4724 3.771 26.5002 4.646C28.5279 5.521 30.2918 6.7085 31.7918 8.2085C33.2918 9.7085 34.4793 11.4724 35.3543 13.5002C36.2293 15.5279 36.6668 17.6946 36.6668 20.0002C36.6668 22.2871 36.2293 24.4445 35.3543 26.4722C34.4793 28.5 33.2918 30.2686 31.7918 31.7781C30.2918 33.2872 28.5279 34.4793 26.5002 35.3543C24.4724 36.2293 22.3057 36.6668 20.0002 36.6668ZM20.0002 33.8889C23.8704 33.8889 27.1528 32.5371 29.8472 29.8335C32.5417 27.1299 33.8889 23.8521 33.8889 20.0002C33.8889 16.1299 32.5417 12.8475 29.8472 10.1531C27.1528 7.45863 23.8704 6.11141 20.0002 6.11141C16.1482 6.11141 12.8704 7.45863 10.1668 10.1531C7.46322 12.8475 6.11141 16.1299 6.11141 20.0002C6.11141 23.8521 7.46322 27.1299 10.1668 29.8335C12.8704 32.5371 16.1482 33.8889 20.0002 33.8889Z" fill="#0093AD"/>
</g>
</g>
</g>
</g>
</svg>
